<svg width="24" height="25" viewBox="0 0 24 25" fill="none" xmlns="http://www.w3.org/2000/svg">
<path d="M1 22.6609H23" stroke="currentColor" stroke-width="1.5" stroke-miterlimit="10" stroke-linecap="round" stroke-linejoin="round"/>
<path d="M19.78 22.6709V18.2108" stroke="currentColor" stroke-width="1.5" stroke-miterlimit="10" stroke-linecap="round" stroke-linejoin="round"/>
<path d="M19.8 11.5509C18.58 11.5509 17.6 12.5309 17.6 13.7509V16.0208C17.6 17.2408 18.58 18.2209 19.8 18.2209C21.02 18.2209 22 17.2408 22 16.0208V13.7509C22 12.5309 21.02 11.5509 19.8 11.5509Z" stroke="currentColor" stroke-width="1.5" stroke-miterlimit="10" stroke-linecap="round" stroke-linejoin="round"/>
<path d="M2.09998 22.6609V6.69089C2.09998 4.68089 3.10003 3.67087 5.09003 3.67087H11.32C13.31 3.67087 14.3 4.68089 14.3 6.69089V22.6609" stroke="currentColor" stroke-width="1.5" stroke-miterlimit="10" stroke-linecap="round" stroke-linejoin="round"/>
<path d="M5.79999 8.91086H10.75" stroke="currentColor" stroke-width="1.5" stroke-miterlimit="10" stroke-linecap="round" stroke-linejoin="round"/>
<path d="M5.79999 12.6609H10.75" stroke="currentColor" stroke-width="1.5" stroke-miterlimit="10" stroke-linecap="round" stroke-linejoin="round"/>
<path d="M8.25 22.6609V18.9109" stroke="currentColor" stroke-width="1.5" stroke-miterlimit="10" stroke-linecap="round" stroke-linejoin="round"/>
</svg>
