<svg width="24" height="25" viewBox="0 0 24 25" fill="none" xmlns="http://www.w3.org/2000/svg">
<path d="M17 14.0609V17.0609C17 21.0609 15.4 22.6609 11.4 22.6609H7.6C3.6 22.6609 2 21.0609 2 17.0609V13.2609C2 9.26086 3.6 7.66086 7.6 7.66086H10.6" stroke="currentColor" stroke-width="1.5" stroke-linecap="round" stroke-linejoin="round"/>
<path d="M17 14.0609H13.8C11.4 14.0609 10.6 13.2609 10.6 10.8609V7.66086L17 14.0609Z" stroke="currentColor" stroke-width="1.5" stroke-linecap="round" stroke-linejoin="round"/>
<path d="M11.6 2.66086H15.6" stroke="#292D32" stroke-width="1.5" stroke-linecap="round" stroke-linejoin="round"/>
<path d="M7 5.66086C7 4.00086 8.34 2.66086 10 2.66086H12.62" stroke="currentColor" stroke-width="1.5" stroke-linecap="round" stroke-linejoin="round"/>
<path d="M22 8.66086V14.8509C22 16.4009 20.74 17.6609 19.19 17.6609" stroke="currentColor" stroke-width="1.5" stroke-linecap="round" stroke-linejoin="round"/>
<path d="M22 8.66086H19C16.75 8.66086 16 7.91086 16 5.66086V2.66086L22 8.66086Z" stroke="currentColor" stroke-width="1.5" stroke-linecap="round" stroke-linejoin="round"/>
</svg>
