<svg width="24" height="25" viewBox="0 0 24 25" fill="none" xmlns="http://www.w3.org/2000/svg">
<path d="M13.4 18.0808H10.89C9.25 18.0808 7.92 16.7008 7.92 15.0008C7.92 14.5908 8.26 14.2508 8.67 14.2508C9.08 14.2508 9.42 14.5908 9.42 15.0008C9.42 15.8708 10.08 16.5808 10.89 16.5808H13.4C14.05 16.5808 14.59 16.0008 14.59 15.3008C14.59 14.4308 14.28 14.2608 13.77 14.0808L9.74 12.6608C8.96 12.3908 7.91 11.8108 7.91 10.0208C7.91 8.48084 9.12 7.24084 10.6 7.24084H13.11C14.75 7.24084 16.08 8.62084 16.08 10.3208C16.08 10.7308 15.74 11.0708 15.33 11.0708C14.92 11.0708 14.58 10.7308 14.58 10.3208C14.58 9.45084 13.92 8.74084 13.11 8.74084H10.6C9.95 8.74084 9.41 9.32084 9.41 10.0208C9.41 10.8908 9.72 11.0608 10.23 11.2408L14.26 12.6608C15.04 12.9308 16.09 13.5108 16.09 15.3008C16.08 16.8308 14.88 18.0808 13.4 18.0808Z" fill="currentColor"/>
<path d="M12 19.4109C11.59 19.4109 11.25 19.0709 11.25 18.6609V6.66086C11.25 6.25086 11.59 5.91086 12 5.91086C12.41 5.91086 12.75 6.25086 12.75 6.66086V18.6609C12.75 19.0709 12.41 19.4109 12 19.4109Z" fill="currentColor"/>
<path d="M15 23.4109H9C3.57 23.4109 1.25 21.0909 1.25 15.6609V9.66086C1.25 4.23086 3.57 1.91086 9 1.91086H15C20.43 1.91086 22.75 4.23086 22.75 9.66086V15.6609C22.75 21.0909 20.43 23.4109 15 23.4109ZM9 3.41086C4.39 3.41086 2.75 5.05086 2.75 9.66086V15.6609C2.75 20.2709 4.39 21.9109 9 21.9109H15C19.61 21.9109 21.25 20.2709 21.25 15.6609V9.66086C21.25 5.05086 19.61 3.41086 15 3.41086H9Z" fill="currentColor"/>
</svg>
