<svg width="79" height="79" viewBox="0 0 79 79" fill="none" xmlns="http://www.w3.org/2000/svg">
<g filter="url(#filter0_f_203_302)">
<ellipse cx="39.25" cy="39.5" rx="27.25" ry="26.9156" fill="#6AADF0" fill-opacity="0.55"/>
</g>
<path d="M66.25 39.5C66.25 54.2241 54.1646 66.1656 39.25 66.1656C24.3354 66.1656 12.25 54.2241 12.25 39.5C12.25 24.7759 24.3354 12.8344 39.25 12.8344C54.1646 12.8344 66.25 24.7759 66.25 39.5Z" fill="white" stroke="white" stroke-width="0.5"/>
<path d="M41.4186 36.4421L38.2278 29.5844H30.4854H27.2308L24.8083 34.7895L24 36.5287H33.7175L36.9483 43.4755L37.5473 44.7604L40.1816 50.4223H47.924L45.2885 44.7604L44.692 43.4755L41.4587 36.5287H41.3772L41.4186 36.4421Z" fill="#2A2626"/>
<path d="M42.0204 37.021L42.0637 37.1149H50.3212L53.8031 29.5844H45.4577L42.0204 37.021Z" fill="#2E95F4"/>
<defs>
<filter id="filter0_f_203_302" x="0" y="0.584412" width="78.5" height="77.8312" filterUnits="userSpaceOnUse" color-interpolation-filters="sRGB">
<feFlood flood-opacity="0" result="BackgroundImageFix"/>
<feBlend mode="normal" in="SourceGraphic" in2="BackgroundImageFix" result="shape"/>
<feGaussianBlur stdDeviation="6" result="effect1_foregroundBlur_203_302"/>
</filter>
</defs>
</svg>
