<svg width="24" height="25" viewBox="0 0 24 25" fill="none" xmlns="http://www.w3.org/2000/svg">
<path d="M15 23.4109H9C3.57 23.4109 1.25 21.0909 1.25 15.6609V9.66086C1.25 4.23086 3.57 1.91086 9 1.91086H15C20.43 1.91086 22.75 4.23086 22.75 9.66086V15.6609C22.75 21.0909 20.43 23.4109 15 23.4109ZM9 3.41086C4.39 3.41086 2.75 5.05086 2.75 9.66086V15.6609C2.75 20.2709 4.39 21.9109 9 21.9109H15C19.61 21.9109 21.25 20.2709 21.25 15.6609V9.66086C21.25 5.05086 19.61 3.41086 15 3.41086H9Z" fill="black"/>
<path d="M10 23.4109C9.59 23.4109 9.25 23.0709 9.25 22.6609V2.66086C9.25 2.25086 9.59 1.91086 10 1.91086C10.41 1.91086 10.75 2.25086 10.75 2.66086V22.6609C10.75 23.0709 10.41 23.4109 10 23.4109Z" fill="black"/>
<path d="M22 13.4109H10C9.59 13.4109 9.25 13.0709 9.25 12.6609C9.25 12.2509 9.59 11.9109 10 11.9109H22C22.41 11.9109 22.75 12.2509 22.75 12.6609C22.75 13.0709 22.41 13.4109 22 13.4109Z" fill="black"/>
</svg>
