<svg width="171" height="62" viewBox="0 0 171 62" fill="none" xmlns="http://www.w3.org/2000/svg">
<g filter="url(#filter0_d_258_53)">
<path d="M152.5 10C152.5 7.23858 150.261 5 147.5 5H21.2534C20.7678 5 20.2988 5.1767 19.9338 5.49712L1.71161 21.4971C0.804413 22.2937 0.804413 23.7063 1.71161 24.5029L19.9338 40.5029C20.2988 40.8233 20.7678 41 21.2534 41H148.5C150.709 41 152.5 39.2091 152.5 37V10Z" fill="#FFD3D3"/>
<path d="M142 47.7485L148.499 41.0002L142 41.0005L142 47.7485Z" fill="#8B4545"/>
<path d="M28.6477 17.3636H31.2273L34.6818 25.7955H34.8182L38.2727 17.3636H40.8523V29H38.8295V21.0057H38.7216L35.5057 28.9659H33.9943L30.7784 20.9886H30.6705V29H28.6477V17.3636ZM46.8636 29.1705C46.0114 29.1705 45.2727 28.983 44.6477 28.608C44.0227 28.233 43.5379 27.7083 43.1932 27.0341C42.8523 26.3598 42.6818 25.572 42.6818 24.6705C42.6818 23.7689 42.8523 22.9792 43.1932 22.3011C43.5379 21.6231 44.0227 21.0966 44.6477 20.7216C45.2727 20.3466 46.0114 20.1591 46.8636 20.1591C47.7159 20.1591 48.4545 20.3466 49.0795 20.7216C49.7045 21.0966 50.1875 21.6231 50.5284 22.3011C50.8731 22.9792 51.0455 23.7689 51.0455 24.6705C51.0455 25.572 50.8731 26.3598 50.5284 27.0341C50.1875 27.7083 49.7045 28.233 49.0795 28.608C48.4545 28.983 47.7159 29.1705 46.8636 29.1705ZM46.875 27.5227C47.3371 27.5227 47.7235 27.3958 48.0341 27.142C48.3447 26.8845 48.5758 26.5398 48.7273 26.108C48.8826 25.6761 48.9602 25.1951 48.9602 24.6648C48.9602 24.1307 48.8826 23.6477 48.7273 23.2159C48.5758 22.7803 48.3447 22.4337 48.0341 22.1761C47.7235 21.9186 47.3371 21.7898 46.875 21.7898C46.4015 21.7898 46.0076 21.9186 45.6932 22.1761C45.3826 22.4337 45.1496 22.7803 44.9943 23.2159C44.8428 23.6477 44.767 24.1307 44.767 24.6648C44.767 25.1951 44.8428 25.6761 44.9943 26.108C45.1496 26.5398 45.3826 26.8845 45.6932 27.142C46.0076 27.3958 46.4015 27.5227 46.875 27.5227ZM59.6889 22.5795L57.8139 22.7841C57.7609 22.5947 57.6681 22.4167 57.5355 22.25C57.4067 22.0833 57.2325 21.9489 57.0128 21.8466C56.7931 21.7443 56.5241 21.6932 56.206 21.6932C55.7779 21.6932 55.4181 21.786 55.1264 21.9716C54.8385 22.1572 54.6965 22.3977 54.7003 22.6932C54.6965 22.947 54.7893 23.1534 54.9787 23.3125C55.1719 23.4716 55.4901 23.6023 55.9332 23.7045L57.4219 24.0227C58.2476 24.2008 58.8613 24.483 59.2628 24.8693C59.6681 25.2557 59.8726 25.7614 59.8764 26.3864C59.8726 26.9356 59.7116 27.4205 59.3935 27.8409C59.0791 28.2576 58.6416 28.5833 58.081 28.8182C57.5204 29.053 56.8764 29.1705 56.1491 29.1705C55.081 29.1705 54.2211 28.947 53.5696 28.5C52.9181 28.0492 52.5298 27.4223 52.4048 26.6193L54.4105 26.4261C54.5014 26.8201 54.6946 27.1174 54.9901 27.3182C55.2855 27.5189 55.67 27.6193 56.1435 27.6193C56.6321 27.6193 57.0241 27.5189 57.3196 27.3182C57.6188 27.1174 57.7685 26.8693 57.7685 26.5739C57.7685 26.3239 57.6719 26.1174 57.4787 25.9545C57.2893 25.7917 56.9938 25.6667 56.5923 25.5795L55.1037 25.267C54.2666 25.0928 53.6473 24.7992 53.2457 24.3864C52.8442 23.9697 52.6454 23.4432 52.6491 22.8068C52.6454 22.2689 52.7912 21.803 53.0866 21.4091C53.3859 21.0114 53.8007 20.7045 54.331 20.4886C54.8651 20.2689 55.4806 20.1591 56.1776 20.1591C57.2003 20.1591 58.0052 20.3769 58.5923 20.8125C59.1832 21.2481 59.5488 21.8371 59.6889 22.5795ZM65.9304 20.2727V21.8636H60.9134V20.2727H65.9304ZM62.152 18.1818H64.2088V26.375C64.2088 26.6515 64.2505 26.8636 64.3338 27.0114C64.4209 27.1553 64.5346 27.2538 64.6747 27.3068C64.8149 27.3598 64.9702 27.3864 65.1406 27.3864C65.2694 27.3864 65.3868 27.3769 65.4929 27.358C65.6027 27.339 65.6861 27.322 65.7429 27.3068L66.0895 28.9148C65.9796 28.9527 65.8224 28.9943 65.6179 29.0398C65.4171 29.0852 65.1709 29.1117 64.8793 29.1193C64.3641 29.1345 63.9001 29.0568 63.4872 28.8864C63.0743 28.7121 62.7467 28.4432 62.5043 28.0795C62.2656 27.7159 62.1482 27.2614 62.152 26.7159V18.1818ZM71.7102 29V17.3636H76.0739C76.9678 17.3636 77.7178 17.5303 78.3239 17.8636C78.9337 18.197 79.3939 18.6553 79.7045 19.2386C80.0189 19.8182 80.1761 20.4773 80.1761 21.2159C80.1761 21.9621 80.0189 22.625 79.7045 23.2045C79.3902 23.7841 78.9261 24.2405 78.3125 24.5739C77.6989 24.9034 76.9432 25.0682 76.0455 25.0682H73.1534V23.3352H75.7614C76.2841 23.3352 76.7121 23.2443 77.0455 23.0625C77.3788 22.8807 77.625 22.6307 77.7841 22.3125C77.947 21.9943 78.0284 21.6288 78.0284 21.2159C78.0284 20.803 77.947 20.4394 77.7841 20.125C77.625 19.8106 77.3769 19.5663 77.0398 19.392C76.7064 19.214 76.2765 19.125 75.75 19.125H73.8182V29H71.7102ZM85.598 29.1705C84.7457 29.1705 84.0071 28.983 83.3821 28.608C82.7571 28.233 82.2723 27.7083 81.9276 27.0341C81.5866 26.3598 81.4162 25.572 81.4162 24.6705C81.4162 23.7689 81.5866 22.9792 81.9276 22.3011C82.2723 21.6231 82.7571 21.0966 83.3821 20.7216C84.0071 20.3466 84.7457 20.1591 85.598 20.1591C86.4503 20.1591 87.1889 20.3466 87.8139 20.7216C88.4389 21.0966 88.9219 21.6231 89.2628 22.3011C89.6075 22.9792 89.7798 23.7689 89.7798 24.6705C89.7798 25.572 89.6075 26.3598 89.2628 27.0341C88.9219 27.7083 88.4389 28.233 87.8139 28.608C87.1889 28.983 86.4503 29.1705 85.598 29.1705ZM85.6094 27.5227C86.0715 27.5227 86.4579 27.3958 86.7685 27.142C87.0791 26.8845 87.3101 26.5398 87.4616 26.108C87.617 25.6761 87.6946 25.1951 87.6946 24.6648C87.6946 24.1307 87.617 23.6477 87.4616 23.2159C87.3101 22.7803 87.0791 22.4337 86.7685 22.1761C86.4579 21.9186 86.0715 21.7898 85.6094 21.7898C85.1359 21.7898 84.742 21.9186 84.4276 22.1761C84.117 22.4337 83.884 22.7803 83.7287 23.2159C83.5772 23.6477 83.5014 24.1307 83.5014 24.6648C83.5014 25.1951 83.5772 25.6761 83.7287 26.108C83.884 26.5398 84.117 26.8845 84.4276 27.142C84.742 27.3958 85.1359 27.5227 85.6094 27.5227ZM91.5256 32.2727V20.2727H93.5483V21.7159H93.6676C93.7737 21.5038 93.9233 21.2784 94.1165 21.0398C94.3097 20.7973 94.571 20.5909 94.9006 20.4205C95.2301 20.2462 95.6506 20.1591 96.1619 20.1591C96.8362 20.1591 97.4441 20.3314 97.9858 20.6761C98.5313 21.017 98.9631 21.5227 99.2812 22.1932C99.6032 22.8598 99.7642 23.678 99.7642 24.6477C99.7642 25.6061 99.607 26.4205 99.2926 27.0909C98.9782 27.7614 98.5502 28.2727 98.0085 28.625C97.4669 28.9773 96.8532 29.1534 96.1676 29.1534C95.6676 29.1534 95.2528 29.0701 94.9233 28.9034C94.5938 28.7367 94.3286 28.536 94.1278 28.3011C93.9309 28.0625 93.7775 27.8371 93.6676 27.625H93.5824V32.2727H91.5256ZM93.5426 24.6364C93.5426 25.2008 93.6222 25.6951 93.7812 26.1193C93.9441 26.5436 94.1771 26.875 94.4801 27.1136C94.7869 27.3485 95.1581 27.4659 95.5938 27.4659C96.0483 27.4659 96.429 27.3447 96.7358 27.1023C97.0426 26.8561 97.2737 26.5208 97.429 26.0966C97.5881 25.6686 97.6676 25.1818 97.6676 24.6364C97.6676 24.0947 97.59 23.6136 97.4347 23.1932C97.2794 22.7727 97.0483 22.4432 96.7415 22.2045C96.4347 21.9659 96.0521 21.8466 95.5938 21.8466C95.1544 21.8466 94.7812 21.9621 94.4744 22.1932C94.1676 22.4242 93.9347 22.7481 93.7756 23.1648C93.6203 23.5814 93.5426 24.072 93.5426 24.6364ZM107.088 25.3295V20.2727H109.145V29H107.151V27.4489H107.06C106.863 27.9375 106.539 28.3371 106.088 28.6477C105.641 28.9583 105.09 29.1136 104.435 29.1136C103.863 29.1136 103.357 28.9867 102.918 28.733C102.482 28.4754 102.141 28.1023 101.895 27.6136C101.649 27.1212 101.526 26.5265 101.526 25.8295V20.2727H103.582V25.5114C103.582 26.0644 103.734 26.5038 104.037 26.8295C104.34 27.1553 104.738 27.3182 105.23 27.3182C105.533 27.3182 105.827 27.2443 106.111 27.0966C106.395 26.9489 106.628 26.7292 106.81 26.4375C106.995 26.142 107.088 25.7727 107.088 25.3295ZM113.317 17.3636V29H111.26V17.3636H113.317ZM117.943 29.1761C117.39 29.1761 116.892 29.0777 116.449 28.8807C116.009 28.6799 115.661 28.3845 115.403 27.9943C115.15 27.6042 115.023 27.1231 115.023 26.5511C115.023 26.0587 115.114 25.6515 115.295 25.3295C115.477 25.0076 115.725 24.75 116.04 24.5568C116.354 24.3636 116.708 24.2178 117.102 24.1193C117.5 24.017 117.911 23.9432 118.335 23.8977C118.847 23.8447 119.261 23.7973 119.58 23.7557C119.898 23.7102 120.129 23.642 120.273 23.5511C120.42 23.4564 120.494 23.3106 120.494 23.1136V23.0795C120.494 22.6515 120.367 22.3201 120.114 22.0852C119.86 21.8504 119.494 21.733 119.017 21.733C118.513 21.733 118.114 21.8428 117.818 22.0625C117.527 22.2822 117.33 22.5417 117.227 22.8409L115.307 22.5682C115.458 22.0379 115.708 21.5947 116.057 21.2386C116.405 20.8788 116.831 20.6098 117.335 20.4318C117.839 20.25 118.396 20.1591 119.006 20.1591C119.426 20.1591 119.845 20.2083 120.261 20.3068C120.678 20.4053 121.059 20.5682 121.403 20.7955C121.748 21.0189 122.025 21.3239 122.233 21.7102C122.445 22.0966 122.551 22.5795 122.551 23.1591V29H120.574V27.8011H120.506C120.381 28.0436 120.205 28.2708 119.977 28.483C119.754 28.6913 119.472 28.8598 119.131 28.9886C118.794 29.1136 118.398 29.1761 117.943 29.1761ZM118.477 27.6648C118.89 27.6648 119.248 27.5833 119.551 27.4205C119.854 27.2538 120.087 27.0341 120.25 26.7614C120.417 26.4886 120.5 26.1913 120.5 25.8693V24.8409C120.436 24.8939 120.326 24.9432 120.17 24.9886C120.019 25.0341 119.848 25.0739 119.659 25.108C119.47 25.142 119.282 25.1723 119.097 25.1989C118.911 25.2254 118.75 25.2481 118.614 25.267C118.307 25.3087 118.032 25.3769 117.79 25.4716C117.547 25.5663 117.356 25.6989 117.216 25.8693C117.076 26.036 117.006 26.2519 117.006 26.517C117.006 26.8958 117.144 27.1818 117.42 27.375C117.697 27.5682 118.049 27.6648 118.477 27.6648ZM124.619 29V20.2727H126.614V21.7273H126.705C126.864 21.2235 127.136 20.8352 127.523 20.5625C127.913 20.286 128.358 20.1477 128.858 20.1477C128.972 20.1477 129.098 20.1534 129.239 20.1648C129.383 20.1723 129.502 20.1856 129.597 20.2045V22.0966C129.509 22.0663 129.371 22.0398 129.182 22.017C128.996 21.9905 128.816 21.9773 128.642 21.9773C128.267 21.9773 127.93 22.0587 127.631 22.2216C127.335 22.3807 127.102 22.6023 126.932 22.8864C126.761 23.1705 126.676 23.4981 126.676 23.8693V29H124.619Z" fill="#1F1C1C"/>
</g>
<defs>
<filter id="filter0_d_258_53" x="0.931189" y="0.9" width="169.669" height="60.9485" filterUnits="userSpaceOnUse" color-interpolation-filters="sRGB">
<feFlood flood-opacity="0" result="BackgroundImageFix"/>
<feColorMatrix in="SourceAlpha" type="matrix" values="0 0 0 0 0 0 0 0 0 0 0 0 0 0 0 0 0 0 127 0" result="hardAlpha"/>
<feOffset dx="9" dy="5"/>
<feGaussianBlur stdDeviation="4.55"/>
<feComposite in2="hardAlpha" operator="out"/>
<feColorMatrix type="matrix" values="0 0 0 0 0 0 0 0 0 0 0 0 0 0 0 0 0 0 0.25 0"/>
<feBlend mode="normal" in2="BackgroundImageFix" result="effect1_dropShadow_258_53"/>
<feBlend mode="normal" in="SourceGraphic" in2="effect1_dropShadow_258_53" result="shape"/>
</filter>
</defs>
</svg>
