<svg width="129" height="29" viewBox="0 0 129 29" fill="none" xmlns="http://www.w3.org/2000/svg">
<rect width="129" height="29" fill="#1E1E1E"/>
<rect width="1440" height="1024" transform="translate(-77 -68)" fill="#F2F2F2"/>
<path d="M-76.5 -67.5H214.5V955.5H-76.5V-67.5Z" fill="white"/>
<path d="M-76.5 -67.5H214.5V955.5H-76.5V-67.5Z" stroke="#F2F2F7"/>
<path d="M53.0014 4.33629V26.2959H48.2649V8.94852L42.4915 12.5256V8.79188L49.6439 4.33629H53.0014Z" fill="#2D2D33"/>
<path d="M78.3509 8.22834H70.0356V26.2993H64.9858V8.22834H56.6705V4.338H78.3492V8.22834H78.3509Z" fill="#2D2D33"/>
<path d="M89.9571 8.13129L83.7461 22.4055H90.2414V26.2959H76.689L86.855 4.33629H93.0659L103.232 26.2959H97.8348L89.9605 8.13129H89.9571Z" fill="#2D2D33"/>
<path d="M129 11.7101C129 16.6986 125.675 19.1469 119.619 19.1469H111.745V26.2993H106.663V15.3195H119.306C122.255 15.3195 123.823 14.126 123.823 11.7135C123.823 9.30098 122.253 8.19943 119.306 8.19943H106.663V4.34143H120.215C126.206 4.34143 128.998 7.29026 128.998 11.7135V11.7101H129Z" fill="#2D2D33"/>
<path d="M23.6637 9.43217L19.329 0H8.81064H4.3891L1.09806 7.15926L-9.15527e-05 9.55135H13.2015L17.5907 19.1061L18.4046 20.8734L21.9833 28.6609H32.5017L28.9212 20.8734L28.1108 19.1061L23.7182 9.55135H23.6076L23.6637 9.43217Z" fill="#2D2D33"/>
<path d="M24.4818 10.2284L24.5405 10.3576H35.7588L40.489 0H29.1515L24.4818 10.2284Z" fill="#2E95F4"/>
</svg>
