<svg width="24" height="25" viewBox="0 0 24 25" fill="none" xmlns="http://www.w3.org/2000/svg">
<path d="M16 23.4109H8C4.98 23.4109 3.25 21.6809 3.25 18.6609V8.91086C3.25 5.76086 4.85 4.16086 8 4.16086C8.41 4.16086 8.75 4.50086 8.75 4.91086C8.75 5.31086 8.91 5.69086 9.19 5.97086C9.47 6.25086 9.85 6.41086 10.25 6.41086H13.75C14.58 6.41086 15.25 5.74086 15.25 4.91086C15.25 4.50086 15.59 4.16086 16 4.16086C19.15 4.16086 20.75 5.76086 20.75 8.91086V18.6609C20.75 21.6809 19.02 23.4109 16 23.4109ZM7.34998 5.68086C5.76998 5.81086 4.75 6.52086 4.75 8.91086V18.6609C4.75 20.8809 5.78 21.9109 8 21.9109H16C18.22 21.9109 19.25 20.8809 19.25 18.6609V8.91086C19.25 6.52086 18.23 5.82086 16.65 5.68086C16.31 6.96086 15.14 7.91086 13.75 7.91086H10.25C9.45 7.91086 8.70001 7.60085 8.13 7.03085C7.75 6.65085 7.48998 6.19086 7.34998 5.68086Z" fill="currentColor"/>
<path d="M13.75 7.91086H10.25C9.45 7.91086 8.7 7.60085 8.13 7.03085C7.56 6.46085 7.25 5.71086 7.25 4.91086C7.25 3.26086 8.6 1.91086 10.25 1.91086H13.75C14.55 1.91086 15.3 2.22086 15.87 2.79086C16.44 3.36086 16.75 4.11086 16.75 4.91086C16.75 6.56086 15.4 7.91086 13.75 7.91086ZM10.25 3.41086C9.42 3.41086 8.75 4.08086 8.75 4.91086C8.75 5.31086 8.91 5.69086 9.19 5.97086C9.47 6.25086 9.85 6.41086 10.25 6.41086H13.75C14.58 6.41086 15.25 5.74086 15.25 4.91086C15.25 4.51086 15.09 4.13086 14.81 3.85086C14.53 3.57086 14.15 3.41086 13.75 3.41086H10.25Z" fill="currentColor"/>
<path d="M12 14.4109H8C7.59 14.4109 7.25 14.0709 7.25 13.6609C7.25 13.2509 7.59 12.9109 8 12.9109H12C12.41 12.9109 12.75 13.2509 12.75 13.6609C12.75 14.0709 12.41 14.4109 12 14.4109Z" fill="currentColor"/>
<path d="M16 18.4109H8C7.59 18.4109 7.25 18.0709 7.25 17.6609C7.25 17.2509 7.59 16.9109 8 16.9109H16C16.41 16.9109 16.75 17.2509 16.75 17.6609C16.75 18.0709 16.41 18.4109 16 18.4109Z" fill="currentColor"/>
</svg>
