<svg width="73" height="73" viewBox="0 0 73 73" fill="none" xmlns="http://www.w3.org/2000/svg">
<g filter="url(#filter0_d_258_337)">
<rect width="55" height="55" rx="15" transform="matrix(1 0 0 -1 9 64)" fill="white" shape-rendering="crispEdges"/>
<path d="M27.2518 42.0949L26.4311 41.5236H26.4311L27.2518 42.0949ZM28.6144 37.8792L27.6144 37.868V37.8792H28.6144ZM28.643 35.3304L29.643 35.3416V35.3304H28.643ZM45.7582 42.1154L46.5899 41.5601L46.5899 41.5601L45.7582 42.1154ZM44.4468 37.8792L43.4468 37.8674V37.8792H44.4468ZM44.4754 35.4567L45.4754 35.4685V35.4567H44.4754ZM33.9994 45.907C33.5671 45.5632 32.938 45.635 32.5943 46.0673C32.2505 46.4995 32.3223 47.1286 32.7545 47.4724L33.9994 45.907ZM40.2482 47.4724C40.6805 47.1286 40.7522 46.4995 40.4085 46.0673C40.0647 45.635 39.4356 45.5632 39.0033 45.907L40.2482 47.4724ZM25.5652 29.1187C25.369 29.635 25.6285 30.2125 26.1447 30.4088C26.661 30.605 27.2385 30.3456 27.4348 29.8293L25.5652 29.1187ZM30.5143 26.1195C30.9945 25.8466 31.1626 25.2362 30.8898 24.756C30.617 24.2758 30.0065 24.1077 29.5263 24.3805L30.5143 26.1195ZM43.4584 24.3974C42.9812 24.1193 42.3689 24.2808 42.0909 24.758C41.8128 25.2351 41.9743 25.8474 42.4515 26.1254L43.4584 24.3974ZM45.5616 29.8082C45.7526 30.3264 46.3274 30.5918 46.8457 30.4009C47.3639 30.21 47.6293 29.6351 47.4384 29.1168L45.5616 29.8082ZM28.0725 42.6663C28.849 41.551 29.6144 39.8944 29.6144 37.8792H27.6144C27.6144 39.3821 27.0414 40.6469 26.4311 41.5236L28.0725 42.6663ZM29.6144 37.8904L29.643 35.3416L27.6431 35.3192L27.6145 37.868L29.6144 37.8904ZM46.5899 41.5601C46.0047 40.6837 45.4468 39.4053 45.4468 37.8792H43.4468C43.4468 39.8954 44.1812 41.5543 44.9265 42.6706L46.5899 41.5601ZM45.4468 37.891L45.4754 35.4685L43.4755 35.4449L43.4469 37.8674L45.4468 37.891ZM45.4754 35.4567C45.4754 30.1829 41.5379 25.7558 36.5014 25.7558V27.7558C40.2727 27.7558 43.4754 31.1197 43.4754 35.4567H45.4754ZM45.281 44.2967C46.0984 44.2967 46.5667 43.6797 46.7418 43.2308C46.9224 42.7679 46.9591 42.1132 46.5899 41.5601L44.9265 42.6706C44.8821 42.6041 44.8756 42.5506 44.8748 42.5337C44.8739 42.5173 44.8762 42.5101 44.8786 42.5039C44.8802 42.4999 44.8952 42.461 44.9512 42.4131C45.0148 42.3587 45.1303 42.2967 45.281 42.2967V44.2967ZM29.643 35.3304C29.643 31.0632 32.7939 27.7558 36.5014 27.7558V25.7558C31.5287 25.7558 27.643 30.1264 27.643 35.3304H29.643ZM27.7229 42.2967C27.8769 42.2967 27.9938 42.3611 28.0565 42.4158C28.1114 42.4638 28.1248 42.5014 28.1254 42.5029C28.1268 42.5066 28.1289 42.5118 28.1279 42.5272C28.1269 42.543 28.12 42.5982 28.0725 42.6663L26.4311 41.5236C26.0448 42.0785 26.0784 42.7444 26.2548 43.2106C26.4253 43.6613 26.8923 44.2967 27.7229 44.2967V42.2967ZM45.281 42.2967H27.7229V44.2967H45.281V42.2967ZM36.5014 46.75C35.5235 46.75 34.6488 46.4235 33.9994 45.907L32.7545 47.4724C33.7634 48.2747 35.0785 48.75 36.5014 48.75V46.75ZM39.0033 45.907C38.3539 46.4235 37.4792 46.75 36.5014 46.75V48.75C37.9242 48.75 39.2393 48.2747 40.2482 47.4724L39.0033 45.907ZM27.4348 29.8293C28.0454 28.2229 29.1289 26.9066 30.5143 26.1195L29.5263 24.3805C27.6955 25.4207 26.3236 27.1236 25.5652 29.1187L27.4348 29.8293ZM42.4515 26.1254C43.8728 26.9536 44.9853 28.2436 45.5616 29.8082L47.4384 29.1168C46.6955 27.1004 45.2665 25.451 43.4584 24.3974L42.4515 26.1254Z" fill="#2A2626"/>
</g>
<defs>
<filter id="filter0_d_258_337" x="0.8" y="0.8" width="71.4" height="71.4" filterUnits="userSpaceOnUse" color-interpolation-filters="sRGB">
<feFlood flood-opacity="0" result="BackgroundImageFix"/>
<feColorMatrix in="SourceAlpha" type="matrix" values="0 0 0 0 0 0 0 0 0 0 0 0 0 0 0 0 0 0 127 0" result="hardAlpha"/>
<feOffset/>
<feGaussianBlur stdDeviation="4.1"/>
<feComposite in2="hardAlpha" operator="out"/>
<feColorMatrix type="matrix" values="0 0 0 0 0 0 0 0 0 0 0 0 0 0 0 0 0 0 0.2 0"/>
<feBlend mode="normal" in2="BackgroundImageFix" result="effect1_dropShadow_258_337"/>
<feBlend mode="normal" in="SourceGraphic" in2="effect1_dropShadow_258_337" result="shape"/>
</filter>
</defs>
</svg>
