<svg width="24" height="25" viewBox="0 0 24 25" fill="none" xmlns="http://www.w3.org/2000/svg">
<path d="M19.42 12.4109H16C15.59 12.4109 15.25 12.0709 15.25 11.6609V4.67086C15.25 3.93086 15.54 3.24086 16.06 2.72086C16.58 2.20086 17.27 1.91086 18.01 1.91086H18.02C19.27 1.92086 20.45 2.41086 21.35 3.30086C22.25 4.21086 22.74 5.41086 22.74 6.66086V9.08086C22.75 11.0709 21.41 12.4109 19.42 12.4109ZM16.75 10.9109H19.42C20.58 10.9109 21.25 10.2409 21.25 9.08086V6.66086C21.25 5.80086 20.91 4.98086 20.3 4.36086C19.69 3.76086 18.87 3.42086 18.02 3.41086C18.02 3.41086 18.02 3.41086 18.01 3.41086C17.68 3.41086 17.36 3.54086 17.12 3.78086C16.88 4.02086 16.75 4.33086 16.75 4.67086V10.9109Z" fill="black"/>
<path d="M8.99977 23.9909C8.52977 23.9909 8.08977 23.8109 7.75977 23.4709L6.09977 21.8009C6.00977 21.7109 5.86977 21.7009 5.76977 21.7809L4.05977 23.0609C3.52977 23.4609 2.82977 23.5309 2.22977 23.2309C1.62977 22.9309 1.25977 22.3309 1.25977 21.6609V6.66086C1.25977 3.64086 2.98977 1.91086 6.00977 1.91086H18.0098C18.4198 1.91086 18.7598 2.25086 18.7598 2.66086C18.7598 3.07086 18.4198 3.41086 18.0098 3.41086C17.3198 3.41086 16.7598 3.97086 16.7598 4.66086V21.6609C16.7598 22.3309 16.3898 22.9309 15.7898 23.2309C15.1898 23.5309 14.4898 23.4709 13.9598 23.0709L12.2498 21.7909C12.1498 21.7109 12.0098 21.7309 11.9298 21.8109L10.2498 23.4909C9.90977 23.8109 9.46977 23.9909 8.99977 23.9909ZM5.90977 20.2309C6.36977 20.2309 6.81977 20.4009 7.15977 20.7509L8.81977 22.4209C8.87977 22.4809 8.95977 22.4909 8.99977 22.4909C9.03977 22.4909 9.11977 22.4809 9.17977 22.4209L10.8598 20.7409C11.4798 20.1209 12.4598 20.0609 13.1498 20.5909L14.8498 21.8609C14.9598 21.9409 15.0598 21.9109 15.1098 21.8809C15.1598 21.8509 15.2498 21.7909 15.2498 21.6609V4.66086C15.2498 4.21086 15.3598 3.78086 15.5498 3.41086H5.99977C3.77977 3.41086 2.74977 4.44086 2.74977 6.66086V21.6609C2.74977 21.8009 2.83977 21.8609 2.88977 21.8909C2.94977 21.9209 3.04977 21.9409 3.14977 21.8609L4.85977 20.5809C5.16977 20.3509 5.53977 20.2309 5.90977 20.2309Z" fill="black"/>
<path d="M11.4302 14.7409C10.8702 14.7409 10.4302 14.2909 10.4302 13.7409C10.4302 13.1909 10.8802 12.7409 11.4302 12.7409C11.9802 12.7409 12.4302 13.1909 12.4302 13.7409C12.4302 14.2909 11.9802 14.7409 11.4302 14.7409Z" fill="black"/>
<path d="M6.56982 10.6909C6.00982 10.6909 5.56982 10.2409 5.56982 9.69089C5.56982 9.14089 6.01982 8.69089 6.56982 8.69089C7.11982 8.69089 7.56982 9.14089 7.56982 9.69089C7.56982 10.2409 7.11982 10.6909 6.56982 10.6909Z" fill="black"/>
<path d="M6.26996 15.1408C6.07996 15.1408 5.88996 15.0708 5.73996 14.9208C5.44996 14.6308 5.44996 14.1508 5.73996 13.8608L11.2 8.40082C11.49 8.11082 11.97 8.11082 12.26 8.40082C12.55 8.69082 12.55 9.17082 12.26 9.46082L6.79996 14.9208C6.65996 15.0608 6.45996 15.1408 6.26996 15.1408Z" fill="black"/>
</svg>
