<svg width="24" height="24" viewBox="0 0 24 24" fill="none" xmlns="http://www.w3.org/2000/svg">
<path d="M21.3 7.58018H15.72C15.33 7.58018 15.02 7.27018 15.02 6.88018C15.02 6.49018 15.33 6.18018 15.72 6.18018H21.3C21.69 6.18018 22 6.49018 22 6.88018C22 7.27018 21.69 7.58018 21.3 7.58018Z" fill="#0D7FE8"/>
<path d="M8.63409 8.45766H4.03765C3.55577 8.45766 3.17273 8.07462 3.17273 7.59273C3.17273 7.11085 3.55577 6.72781 4.03765 6.72781H8.63409C9.11597 6.72781 9.49901 7.11085 9.49901 7.59273C9.49901 8.07462 9.10361 8.45766 8.63409 8.45766Z" fill="#0D7FE8"/>
<path d="M10.1401 10.8302C12.3216 10.8302 14.0901 9.06176 14.0901 6.88024C14.0901 4.69871 12.3216 2.93024 10.1401 2.93024C7.95854 2.93024 6.19006 4.69871 6.19006 6.88024C6.19006 9.06176 7.95854 10.8302 10.1401 10.8302Z" fill="#91C4F6"/>
<path d="M22.0355 17.81H18.3155C17.9255 17.81 17.6155 17.5 17.6155 17.11C17.6155 16.72 17.9255 16.41 18.3155 16.41H22.0355C22.4255 16.41 22.7355 16.72 22.7355 17.11C22.7355 17.5 22.4255 17.81 22.0355 17.81Z" fill="#91C4F6"/>
<path d="M8.28 17.81H2.7C2.31 17.81 2 17.5 2 17.11C2 16.72 2.31 16.41 2.7 16.41H8.28C8.67 16.41 8.98 16.72 8.98 17.11C8.98 17.5 8.66 17.81 8.28 17.81Z" fill="#91C4F6"/>
<path d="M13.86 21.0698C16.0416 21.0698 17.81 19.3013 17.81 17.1198C17.81 14.9383 16.0416 13.1698 13.86 13.1698C11.6785 13.1698 9.91003 14.9383 9.91003 17.1198C9.91003 19.3013 11.6785 21.0698 13.86 21.0698Z" fill="#0D7FE8"/>
</svg>
